<svg width="45" height="18" viewBox="0 0 45 18" fill="none" xmlns="http://www.w3.org/2000/svg">
<path d="M4.45643 1.28193C6.0346 0.342329 7.91091 -0.0734711 9.73791 0.0858307C11.8065 0.254129 13.8032 1.18203 15.2663 2.65533C16.6469 4.00803 17.5577 5.82864 17.8199 7.74483C18.0643 9.46199 17.8065 11.2548 17.0565 12.8208C16.1384 14.7909 14.4732 16.4028 12.4719 17.2461C10.7888 17.9715 8.87738 18.147 7.08817 17.7591C5.38881 17.3946 3.79984 16.5189 2.59179 15.2661C1.02979 13.6965 0.113621 11.5185 0.0390625 9.30628V8.61504C0.0848849 7.99143 0.163022 7.36764 0.322909 6.76293C0.901334 4.48233 2.42828 2.46534 4.45643 1.28193ZM6.9786 4.15554C6.21691 4.53633 5.61333 5.24103 5.39594 6.07083C5.15342 6.97443 5.20731 7.97253 5.60526 8.82393C6.00405 9.6474 6.73608 10.2288 7.44833 10.7688C6.62469 11.9694 5.8208 13.1844 4.99174 14.3805C5.68518 14.3814 6.37947 14.3949 7.07291 14.3742C7.92529 13.0377 8.79027 11.7111 9.64261 10.3755C9.17204 10.029 8.68697 9.7032 8.21991 9.3522C7.67288 8.93454 7.21034 8.34954 7.11333 7.64934C6.98488 6.92934 7.05852 6.06804 7.672 5.58123C8.39506 4.96284 9.40907 5.07543 10.2912 5.06904C10.2876 8.17404 10.2912 11.28 10.2893 14.385C10.8921 14.3823 11.4939 14.385 12.0965 14.3832C12.0975 10.803 12.0992 7.22283 12.0957 3.64263C11.2208 3.63723 10.3469 3.64164 9.47204 3.63993C8.61961 3.64083 7.74299 3.75603 6.9786 4.15554Z" fill="#FC3F1D"/>
<path d="M6.97904 4.15564C7.74343 3.75613 8.62005 3.64093 9.47248 3.64003C10.3473 3.64174 11.2213 3.63733 12.0961 3.64273C12.0996 7.22293 12.0979 10.8031 12.0969 14.3833C11.4943 14.3851 10.8925 14.3824 10.2898 14.3851C10.2916 11.2801 10.288 8.17414 10.2916 5.06914C9.40952 5.07553 8.3955 4.96294 7.67244 5.58133C7.05896 6.06814 6.98532 6.92944 7.11377 7.64944C7.21079 8.34964 7.67332 8.93464 8.22035 9.35231C8.68741 9.70331 9.17248 10.0291 9.64305 10.3756C8.79071 11.7112 7.92573 13.0378 7.07335 14.3743C6.37991 14.395 5.68563 14.3815 4.99219 14.3806C5.82124 13.1845 6.62513 11.9695 7.44877 10.7689C6.73653 10.2289 6.00449 9.64751 5.60571 8.82403C5.20776 7.97263 5.15386 6.97453 5.39638 6.07093C5.61377 5.24113 6.21735 4.53643 6.97904 4.15564Z" fill="white"/>
<path d="M22.6964 3.62899C23.6817 3.63349 24.6662 3.62008 25.6506 3.63628C26.6458 3.65338 27.6984 3.88018 28.4665 4.55248C29.124 5.11948 29.4473 5.99428 29.4706 6.84829C29.4993 7.67998 29.344 8.56378 28.8204 9.23244C28.3515 9.86602 27.6051 10.2287 26.8533 10.4042C26.106 10.577 25.3336 10.5447 24.5728 10.5492C24.5683 11.8236 24.5755 13.098 24.5692 14.3723C23.9458 14.3715 23.3216 14.3741 22.6982 14.3706C22.6946 10.7904 22.6973 7.21018 22.6964 3.62899ZM24.5719 5.09248C24.5709 6.42718 24.5719 7.76098 24.5719 9.09565C25.3237 9.08211 26.1527 9.19102 26.8156 8.75368C27.4407 8.35579 27.6176 7.54399 27.5719 6.84928C27.5548 6.26698 27.3132 5.63329 26.7707 5.35249C26.0997 4.97728 25.3057 5.11849 24.5719 5.09248ZM32.238 3.62818C33.024 3.63088 33.8099 3.62818 34.5958 3.62998C35.5389 7.20928 36.4785 10.7912 37.4189 14.3715C36.7704 14.3732 36.1228 14.3715 35.4751 14.3723C35.283 13.592 35.0853 12.8135 34.893 12.0333C33.7964 12.0314 32.6997 12.0324 31.603 12.0333C31.4018 12.8117 31.2069 13.5929 31.003 14.3715C30.4704 14.3732 29.9368 14.3723 29.4033 14.3723C30.3428 10.7894 31.2949 7.21018 32.238 3.62818ZM33.253 5.60278C32.8282 7.25878 32.4051 8.91379 31.9749 10.568C32.8219 10.5734 33.6689 10.568 34.5159 10.5707C34.1 8.91379 33.6805 7.25698 33.253 5.60278ZM36.8107 3.63088C37.4764 3.62728 38.1427 3.62998 38.8093 3.62998C39.5386 5.12578 40.2635 6.62428 41.0027 8.11549C41.7303 6.61708 42.4776 5.12848 43.2069 3.62998C43.7871 3.62728 44.3683 3.63088 44.9494 3.62818C43.9156 5.68909 42.8467 7.73398 41.8219 9.79944C41.8084 11.3231 41.8237 12.8477 41.8147 14.3715C41.194 14.3723 40.5742 14.3732 39.9536 14.3715C39.9464 12.8468 39.9634 11.3231 39.9464 9.79944C38.9216 7.73398 37.8383 5.69629 36.8107 3.63088Z" fill="currentColor"/>
</svg>
