<svg width="139" height="39" viewBox="0 0 139 39" fill="none" xmlns="http://www.w3.org/2000/svg">
  <path d="M3.87479 1.43314V16.2688H10.6955L12.5002 13.721H13.084L12.4471 17.1977L0 17.2508V16.8527L1.77816 15.9769V1.43314L0 0.610412V0.238855H6.07758V0.610412L3.87479 1.43314Z" fill="currentColor"/>
  <path d="M28.7636 9.9789L25.7381 2.62742L22.5798 9.9789H28.7636ZM21.9694 17.2242H17.0861V16.8792L18.8908 16.0299L25.1807 1.32698L24.7295 0.238855H27.2243L33.753 16.083L35.6639 16.8527V17.2242H29.1617V16.8527L31.2583 16.083L29.1086 10.9609H22.1817L20.0851 16.0565L21.9694 16.8261V17.2242Z" fill="currentColor"/>
  <path d="M63.1755 12.5798C63.1755 14.2076 62.4678 15.4903 61.0524 16.428C59.8315 17.2242 58.3984 17.6223 56.7529 17.6223C55.0367 17.6223 53.2497 17.1888 51.3919 16.3219L50.9673 13.0044H51.445L52.772 15.8707C54.1697 16.3838 55.4613 16.6492 56.6468 16.6669C57.8499 16.6669 58.9026 16.4192 59.805 15.9238C60.6897 15.4461 61.132 14.6322 61.132 13.4821C61.132 11.7836 59.7165 10.4478 56.8856 9.47465C53.1524 8.20075 51.2858 6.5199 51.2858 4.43212C51.2858 2.9459 51.9316 1.8047 53.2232 1.00851C54.3201 0.336169 55.6029 0 57.0714 0C58.6461 0 60.2208 0.371555 61.7955 1.11466L62.1405 3.92787H61.7955L60.3889 1.59238C59.4334 1.30929 58.5311 1.12351 57.6818 1.03505C56.8326 0.928887 56.0806 0.94658 55.426 1.08812C54.789 1.22967 54.2759 1.51276 53.8867 1.93739C53.4974 2.34433 53.3028 2.90167 53.3028 3.60939C53.2674 5.16638 54.8598 6.48452 58.0799 7.5638C59.7785 8.14767 61.0524 8.85539 61.9016 9.68697C62.7509 10.5008 63.1755 11.4651 63.1755 12.5798Z" fill="currentColor"/>
  <path d="M75.736 16.0565L78.0715 16.8527V17.2242L70.9589 17.1977V16.8527L73.2678 16.0565V1.1412H68.8623L67.2699 3.55631H66.7922L67.5087 0.238855H81.4951L82.2117 3.55631H81.734L80.1416 1.1412H75.736V16.0565Z" fill="currentColor"/>
  <path d="M97.7465 0.610412V0.238855H102.391V0.636951L100.586 1.45968L95.5172 10.2708V15.9503L97.4546 16.8527V17.1977H91.4566V16.8527L93.4736 15.9503V10.5362L88.1657 1.45968L86.2018 0.610412V0.238855H92.1997V0.610412L90.5543 1.45968L95.0129 9.1031L99.4185 1.45968L97.7465 0.610412Z" fill="currentColor"/>
  <path d="M110.847 1.43314V16.2688H117.668L119.473 13.721H120.056L119.419 17.1977L106.972 17.2508V16.8527L108.751 15.9769V1.43314L106.972 0.610412V0.238855H113.05V0.610412L110.847 1.43314Z" fill="currentColor"/>
  <path d="M124.763 17.2242V16.7996L126.356 15.9769V1.5393L124.763 0.583871V0.238855H137.662L138.219 3.63593H137.715L136.096 1.1412C131.213 1.1412 128.771 1.15005 128.771 1.16774V7.98843H134.928L134.158 8.9704H128.771V16.2953H136.096L137.688 13.8802H138.219L137.662 17.1977L124.763 17.2242Z" fill="currentColor"/>
  <path d="M48.3774 30.8258L47.5812 30.494V30.2817H50.328V30.5073L49.5186 30.8125V34.1963H54.4018V30.8258L53.5791 30.5338V30.2817H56.3392V30.5206L55.5298 30.8258V38.1507L56.3392 38.5621V38.7611H53.5791V38.5621L54.4018 38.1507V34.7005H49.5186V38.1374L50.328 38.5621V38.7611H47.5944V38.5753L48.3774 38.1374V30.8258Z" fill="currentColor"/>
  <path d="M59.2016 34.528C59.2016 32.9887 59.551 31.8697 60.2499 31.1708C60.9576 30.4631 61.9484 30.1092 63.2223 30.1092C63.7797 30.1092 64.306 30.1932 64.8014 30.3613C65.2969 30.5294 65.7171 30.7992 66.0621 31.1708C66.4071 31.5423 66.6681 32.0024 66.845 32.5508C67.0308 33.0905 67.1237 33.7495 67.1237 34.528C67.1237 35.3065 67.0308 35.9745 66.845 36.5318C66.6681 37.0803 66.4071 37.5403 66.0621 37.9118C65.7171 38.2834 65.2969 38.5576 64.8014 38.7346C64.306 38.9115 63.7797 39 63.2223 39C62.5942 39 62.0325 38.9115 61.5371 38.7346C61.0417 38.5576 60.6215 38.2878 60.2764 37.9251C59.9314 37.5536 59.666 37.0891 59.4803 36.5318C59.2945 35.9656 59.2016 35.2977 59.2016 34.528ZM65.9161 34.5413C65.9161 33.8513 65.8321 33.2541 65.664 32.7499C65.4959 32.2456 65.2792 31.8298 65.0138 31.5025C64.7484 31.1664 64.4476 30.9187 64.1114 30.7594C63.7752 30.6002 63.4391 30.5206 63.1029 30.5206C62.7933 30.5206 62.4792 30.5869 62.1608 30.7196C61.8511 30.8435 61.568 31.0602 61.3115 31.3698C61.0638 31.6795 60.8603 32.0908 60.7011 32.6039C60.5418 33.117 60.4622 33.7628 60.4622 34.5413C60.4622 35.3198 60.5507 35.9656 60.7276 36.4787C60.9134 36.9918 61.1478 37.4032 61.4309 37.7128C61.714 38.0224 62.0281 38.2436 62.3731 38.3763C62.7181 38.5001 63.0587 38.5621 63.3948 38.5621C63.7045 38.5621 64.0097 38.4824 64.3105 38.3232C64.6112 38.164 64.8811 37.9207 65.1199 37.5934C65.3588 37.2572 65.549 36.837 65.6905 36.3327C65.8409 35.8285 65.9161 35.2313 65.9161 34.5413Z" fill="currentColor"/>
  <path d="M80.1817 30.2817V30.4675L79.4917 30.7727V38.2038L80.4073 38.5886V38.7744H77.3419V38.5886L78.3106 38.1905V31.5423L75.0993 38.6948H74.688L71.4634 31.6087L71.4369 38.1905L72.326 38.5886L72.3127 38.7744H69.9905V38.5886L70.9326 38.1905L70.9459 30.7727L70.2293 30.4675V30.2817H72.0473L75.2055 37.1555L78.3239 30.2817H80.1817Z" fill="currentColor"/>
  <path d="M83.5849 38.7744V38.5621L84.3811 38.1507V30.9319L83.5849 30.4542V30.2817H90.034L90.3127 31.9802H90.0606L89.2511 30.7329C86.8094 30.7329 85.5886 30.7373 85.5886 30.7461V34.1565H88.6672L88.2824 34.6475H85.5886V38.3099H89.2511L90.0473 37.1024H90.3127L90.034 38.7611L83.5849 38.7744Z" fill="currentColor"/>
</svg>
