<svg xmlns="http://www.w3.org/2000/svg" xmlns:xlink="http://www.w3.org/1999/xlink"><symbol id="icon-accordion-closed" viewBox="0 0 21 16"><g fill="none">
<path d="M0 8H20M20 8L12.9449 1M20 8L12.9449 15" stroke="#3A3A36"/>
</g></symbol><symbol id="icon-accordion-opened" viewBox="0 0 40 2"><g fill="none">
<path d="M0 1H40" stroke="#3A3A36"/>
</g></symbol><symbol id="icon-arrow-back" viewBox="0 0 21 16">
<path fill-rule="evenodd" clip-rule="evenodd" d="M7.70283 0.64502L0.289982 7.99996L7.70283 15.3549L8.40716 14.645L2.21371 8.49996H20.9999V7.49996H2.21371L8.40716 1.35489L7.70283 0.64502Z"/>
</symbol><symbol id="icon-arrow-bottom-mini" viewBox="0 0 15 8"><g fill="none">
<path d="M1 1L7.5 7L14 1" stroke="currentColor"/>
</g></symbol><symbol id="icon-arrow-forward" viewBox="0 0 113 16">
<path fill-rule="evenodd" clip-rule="evenodd" d="M105.297 0.64502L112.71 7.99996L105.297 15.3549L104.593 14.645L110.786 8.49996H0V7.49996H110.786L104.593 1.35489L105.297 0.64502Z"/>
</symbol><symbol id="icon-burger" viewBox="0 0 30 15"><g fill="none">
<rect width="30" height="1" fill="currentColor"/>
<rect y="7" width="30" height="1" fill="currentColor"/>
<rect y="14" width="30" height="1" fill="currentColor"/>
</g></symbol><symbol id="icon-close" viewBox="0 0 20 20"><g fill="none"><path d="M.293 18.291a1 1 0 101.414 1.414L10 11.413l8.292 8.292a1 1 0 101.414-1.414l-8.292-8.292 8.292-8.292A1 1 0 1018.291.293L9.999 8.585 1.707.293A1 1 0 10.293 1.707L8.585 10 .293 18.291z"/></g></symbol><symbol id="icon-cross" viewBox="0 0 28 28"><g fill="none">
<path d="M1 1L27 27M27 1L1 27" stroke="currentColor"/>
</g></symbol><symbol id="icon-minus" viewBox="0 0 9 8"><g fill="none">
<path d="M2.0 4.656V3.816H7.0V4.656H2.0Z" fill="#3A3A36"/>
</g></symbol><symbol id="icon-play" viewBox="0 0 25 30"><g fill="none">
<path d="M25 15L0 0V30L25 15Z" fill="currentColor"/>
</g></symbol><symbol id="icon-plus" viewBox="0 0 9 8"><g fill="none">
<path d="M4.208 7.904V4.656H0.96V3.816H4.208V0.575999H5.048V3.816H8.296V4.656H5.048V7.904H4.208Z" fill="#3A3A36"/>
</g></symbol><symbol id="icon-ya-pay" viewBox="0 0 45 18"><g fill="none">
<path d="M4.45643 1.28193C6.0346 0.342329 7.91091 -0.0734711 9.73791 0.0858307C11.8065 0.254129 13.8032 1.18203 15.2663 2.65533C16.6469 4.00803 17.5577 5.82864 17.8199 7.74483C18.0643 9.46199 17.8065 11.2548 17.0565 12.8208C16.1384 14.7909 14.4732 16.4028 12.4719 17.2461C10.7888 17.9715 8.87738 18.147 7.08817 17.7591C5.38881 17.3946 3.79984 16.5189 2.59179 15.2661C1.02979 13.6965 0.113621 11.5185 0.0390625 9.30628V8.61504C0.0848849 7.99143 0.163022 7.36764 0.322909 6.76293C0.901334 4.48233 2.42828 2.46534 4.45643 1.28193ZM6.9786 4.15554C6.21691 4.53633 5.61333 5.24103 5.39594 6.07083C5.15342 6.97443 5.20731 7.97253 5.60526 8.82393C6.00405 9.6474 6.73608 10.2288 7.44833 10.7688C6.62469 11.9694 5.8208 13.1844 4.99174 14.3805C5.68518 14.3814 6.37947 14.3949 7.07291 14.3742C7.92529 13.0377 8.79027 11.7111 9.64261 10.3755C9.17204 10.029 8.68697 9.7032 8.21991 9.3522C7.67288 8.93454 7.21034 8.34954 7.11333 7.64934C6.98488 6.92934 7.05852 6.06804 7.672 5.58123C8.39506 4.96284 9.40907 5.07543 10.2912 5.06904C10.2876 8.17404 10.2912 11.28 10.2893 14.385C10.8921 14.3823 11.4939 14.385 12.0965 14.3832C12.0975 10.803 12.0992 7.22283 12.0957 3.64263C11.2208 3.63723 10.3469 3.64164 9.47204 3.63993C8.61961 3.64083 7.74299 3.75603 6.9786 4.15554Z" fill="#FC3F1D"/>
<path d="M6.97904 4.15564C7.74343 3.75613 8.62005 3.64093 9.47248 3.64003C10.3473 3.64174 11.2213 3.63733 12.0961 3.64273C12.0996 7.22293 12.0979 10.8031 12.0969 14.3833C11.4943 14.3851 10.8925 14.3824 10.2898 14.3851C10.2916 11.2801 10.288 8.17414 10.2916 5.06914C9.40952 5.07553 8.3955 4.96294 7.67244 5.58133C7.05896 6.06814 6.98532 6.92944 7.11377 7.64944C7.21079 8.34964 7.67332 8.93464 8.22035 9.35231C8.68741 9.70331 9.17248 10.0291 9.64305 10.3756C8.79071 11.7112 7.92573 13.0378 7.07335 14.3743C6.37991 14.395 5.68563 14.3815 4.99219 14.3806C5.82124 13.1845 6.62513 11.9695 7.44877 10.7689C6.73653 10.2289 6.00449 9.64751 5.60571 8.82403C5.20776 7.97263 5.15386 6.97453 5.39638 6.07093C5.61377 5.24113 6.21735 4.53643 6.97904 4.15564Z" fill="white"/>
<path d="M22.6964 3.62899C23.6817 3.63349 24.6662 3.62008 25.6506 3.63628C26.6458 3.65338 27.6984 3.88018 28.4665 4.55248C29.124 5.11948 29.4473 5.99428 29.4706 6.84829C29.4993 7.67998 29.344 8.56378 28.8204 9.23244C28.3515 9.86602 27.6051 10.2287 26.8533 10.4042C26.106 10.577 25.3336 10.5447 24.5728 10.5492C24.5683 11.8236 24.5755 13.098 24.5692 14.3723C23.9458 14.3715 23.3216 14.3741 22.6982 14.3706C22.6946 10.7904 22.6973 7.21018 22.6964 3.62899ZM24.5719 5.09248C24.5709 6.42718 24.5719 7.76098 24.5719 9.09565C25.3237 9.08211 26.1527 9.19102 26.8156 8.75368C27.4407 8.35579 27.6176 7.54399 27.5719 6.84928C27.5548 6.26698 27.3132 5.63329 26.7707 5.35249C26.0997 4.97728 25.3057 5.11849 24.5719 5.09248ZM32.238 3.62818C33.024 3.63088 33.8099 3.62818 34.5958 3.62998C35.5389 7.20928 36.4785 10.7912 37.4189 14.3715C36.7704 14.3732 36.1228 14.3715 35.4751 14.3723C35.283 13.592 35.0853 12.8135 34.893 12.0333C33.7964 12.0314 32.6997 12.0324 31.603 12.0333C31.4018 12.8117 31.2069 13.5929 31.003 14.3715C30.4704 14.3732 29.9368 14.3723 29.4033 14.3723C30.3428 10.7894 31.2949 7.21018 32.238 3.62818ZM33.253 5.60278C32.8282 7.25878 32.4051 8.91379 31.9749 10.568C32.8219 10.5734 33.6689 10.568 34.5159 10.5707C34.1 8.91379 33.6805 7.25698 33.253 5.60278ZM36.8107 3.63088C37.4764 3.62728 38.1427 3.62998 38.8093 3.62998C39.5386 5.12578 40.2635 6.62428 41.0027 8.11549C41.7303 6.61708 42.4776 5.12848 43.2069 3.62998C43.7871 3.62728 44.3683 3.63088 44.9494 3.62818C43.9156 5.68909 42.8467 7.73398 41.8219 9.79944C41.8084 11.3231 41.8237 12.8477 41.8147 14.3715C41.194 14.3723 40.5742 14.3732 39.9536 14.3715C39.9464 12.8468 39.9634 11.3231 39.9464 9.79944C38.9216 7.73398 37.8383 5.69629 36.8107 3.63088Z" fill="currentColor"/>
</g></symbol><symbol id="logo" viewBox="0 0 139 39"><g fill="none">
  <path d="M3.87479 1.43314V16.2688H10.6955L12.5002 13.721H13.084L12.4471 17.1977L0 17.2508V16.8527L1.77816 15.9769V1.43314L0 0.610412V0.238855H6.07758V0.610412L3.87479 1.43314Z" fill="currentColor"/>
  <path d="M28.7636 9.9789L25.7381 2.62742L22.5798 9.9789H28.7636ZM21.9694 17.2242H17.0861V16.8792L18.8908 16.0299L25.1807 1.32698L24.7295 0.238855H27.2243L33.753 16.083L35.6639 16.8527V17.2242H29.1617V16.8527L31.2583 16.083L29.1086 10.9609H22.1817L20.0851 16.0565L21.9694 16.8261V17.2242Z" fill="currentColor"/>
  <path d="M63.1755 12.5798C63.1755 14.2076 62.4678 15.4903 61.0524 16.428C59.8315 17.2242 58.3984 17.6223 56.7529 17.6223C55.0367 17.6223 53.2497 17.1888 51.3919 16.3219L50.9673 13.0044H51.445L52.772 15.8707C54.1697 16.3838 55.4613 16.6492 56.6468 16.6669C57.8499 16.6669 58.9026 16.4192 59.805 15.9238C60.6897 15.4461 61.132 14.6322 61.132 13.4821C61.132 11.7836 59.7165 10.4478 56.8856 9.47465C53.1524 8.20075 51.2858 6.5199 51.2858 4.43212C51.2858 2.9459 51.9316 1.8047 53.2232 1.00851C54.3201 0.336169 55.6029 0 57.0714 0C58.6461 0 60.2208 0.371555 61.7955 1.11466L62.1405 3.92787H61.7955L60.3889 1.59238C59.4334 1.30929 58.5311 1.12351 57.6818 1.03505C56.8326 0.928887 56.0806 0.94658 55.426 1.08812C54.789 1.22967 54.2759 1.51276 53.8867 1.93739C53.4974 2.34433 53.3028 2.90167 53.3028 3.60939C53.2674 5.16638 54.8598 6.48452 58.0799 7.5638C59.7785 8.14767 61.0524 8.85539 61.9016 9.68697C62.7509 10.5008 63.1755 11.4651 63.1755 12.5798Z" fill="currentColor"/>
  <path d="M75.736 16.0565L78.0715 16.8527V17.2242L70.9589 17.1977V16.8527L73.2678 16.0565V1.1412H68.8623L67.2699 3.55631H66.7922L67.5087 0.238855H81.4951L82.2117 3.55631H81.734L80.1416 1.1412H75.736V16.0565Z" fill="currentColor"/>
  <path d="M97.7465 0.610412V0.238855H102.391V0.636951L100.586 1.45968L95.5172 10.2708V15.9503L97.4546 16.8527V17.1977H91.4566V16.8527L93.4736 15.9503V10.5362L88.1657 1.45968L86.2018 0.610412V0.238855H92.1997V0.610412L90.5543 1.45968L95.0129 9.1031L99.4185 1.45968L97.7465 0.610412Z" fill="currentColor"/>
  <path d="M110.847 1.43314V16.2688H117.668L119.473 13.721H120.056L119.419 17.1977L106.972 17.2508V16.8527L108.751 15.9769V1.43314L106.972 0.610412V0.238855H113.05V0.610412L110.847 1.43314Z" fill="currentColor"/>
  <path d="M124.763 17.2242V16.7996L126.356 15.9769V1.5393L124.763 0.583871V0.238855H137.662L138.219 3.63593H137.715L136.096 1.1412C131.213 1.1412 128.771 1.15005 128.771 1.16774V7.98843H134.928L134.158 8.9704H128.771V16.2953H136.096L137.688 13.8802H138.219L137.662 17.1977L124.763 17.2242Z" fill="currentColor"/>
  <path d="M48.3774 30.8258L47.5812 30.494V30.2817H50.328V30.5073L49.5186 30.8125V34.1963H54.4018V30.8258L53.5791 30.5338V30.2817H56.3392V30.5206L55.5298 30.8258V38.1507L56.3392 38.5621V38.7611H53.5791V38.5621L54.4018 38.1507V34.7005H49.5186V38.1374L50.328 38.5621V38.7611H47.5944V38.5753L48.3774 38.1374V30.8258Z" fill="currentColor"/>
  <path d="M59.2016 34.528C59.2016 32.9887 59.551 31.8697 60.2499 31.1708C60.9576 30.4631 61.9484 30.1092 63.2223 30.1092C63.7797 30.1092 64.306 30.1932 64.8014 30.3613C65.2969 30.5294 65.7171 30.7992 66.0621 31.1708C66.4071 31.5423 66.6681 32.0024 66.845 32.5508C67.0308 33.0905 67.1237 33.7495 67.1237 34.528C67.1237 35.3065 67.0308 35.9745 66.845 36.5318C66.6681 37.0803 66.4071 37.5403 66.0621 37.9118C65.7171 38.2834 65.2969 38.5576 64.8014 38.7346C64.306 38.9115 63.7797 39 63.2223 39C62.5942 39 62.0325 38.9115 61.5371 38.7346C61.0417 38.5576 60.6215 38.2878 60.2764 37.9251C59.9314 37.5536 59.666 37.0891 59.4803 36.5318C59.2945 35.9656 59.2016 35.2977 59.2016 34.528ZM65.9161 34.5413C65.9161 33.8513 65.8321 33.2541 65.664 32.7499C65.4959 32.2456 65.2792 31.8298 65.0138 31.5025C64.7484 31.1664 64.4476 30.9187 64.1114 30.7594C63.7752 30.6002 63.4391 30.5206 63.1029 30.5206C62.7933 30.5206 62.4792 30.5869 62.1608 30.7196C61.8511 30.8435 61.568 31.0602 61.3115 31.3698C61.0638 31.6795 60.8603 32.0908 60.7011 32.6039C60.5418 33.117 60.4622 33.7628 60.4622 34.5413C60.4622 35.3198 60.5507 35.9656 60.7276 36.4787C60.9134 36.9918 61.1478 37.4032 61.4309 37.7128C61.714 38.0224 62.0281 38.2436 62.3731 38.3763C62.7181 38.5001 63.0587 38.5621 63.3948 38.5621C63.7045 38.5621 64.0097 38.4824 64.3105 38.3232C64.6112 38.164 64.8811 37.9207 65.1199 37.5934C65.3588 37.2572 65.549 36.837 65.6905 36.3327C65.8409 35.8285 65.9161 35.2313 65.9161 34.5413Z" fill="currentColor"/>
  <path d="M80.1817 30.2817V30.4675L79.4917 30.7727V38.2038L80.4073 38.5886V38.7744H77.3419V38.5886L78.3106 38.1905V31.5423L75.0993 38.6948H74.688L71.4634 31.6087L71.4369 38.1905L72.326 38.5886L72.3127 38.7744H69.9905V38.5886L70.9326 38.1905L70.9459 30.7727L70.2293 30.4675V30.2817H72.0473L75.2055 37.1555L78.3239 30.2817H80.1817Z" fill="currentColor"/>
  <path d="M83.5849 38.7744V38.5621L84.3811 38.1507V30.9319L83.5849 30.4542V30.2817H90.034L90.3127 31.9802H90.0606L89.2511 30.7329C86.8094 30.7329 85.5886 30.7373 85.5886 30.7461V34.1565H88.6672L88.2824 34.6475H85.5886V38.3099H89.2511L90.0473 37.1024H90.3127L90.034 38.7611L83.5849 38.7744Z" fill="currentColor"/>
</g></symbol></svg>